<svg width="128" height="128" viewBox="0 0 128 128" fill="none" xmlns="http://www.w3.org/2000/svg">
<rect width="128" height="128" fill="white"/>
<path d="M61.5 46H101V16H25V46H61.5ZM61.5 46V73M61.5 73H101V91M61.5 73H25V91M101 91H81V111H120V91H101ZM25 91H8V111H49V91H25Z" stroke="black"/>
<path d="M39.0879 31.5635C37.9622 31.2399 37.1419 30.8434 36.627 30.374C36.1165 29.9001 35.8613 29.3167 35.8613 28.624C35.8613 27.8402 36.1735 27.193 36.7979 26.6826C37.4268 26.1676 38.2425 25.9102 39.2451 25.9102C39.9287 25.9102 40.5371 26.0423 41.0703 26.3066C41.6081 26.571 42.0228 26.9355 42.3145 27.4004C42.6107 27.8652 42.7588 28.3734 42.7588 28.9248H41.4395C41.4395 28.3232 41.248 27.8516 40.8652 27.5098C40.4824 27.1634 39.9424 26.9902 39.2451 26.9902C38.598 26.9902 38.0921 27.1338 37.7275 27.4209C37.3675 27.7035 37.1875 28.0977 37.1875 28.6035C37.1875 29.0091 37.3584 29.3532 37.7002 29.6357C38.0465 29.9137 38.6322 30.1689 39.457 30.4014C40.2865 30.6338 40.9336 30.8913 41.3984 31.1738C41.8678 31.4518 42.2142 31.7777 42.4375 32.1514C42.6654 32.5251 42.7793 32.9648 42.7793 33.4707C42.7793 34.2773 42.4648 34.9245 41.8359 35.4121C41.207 35.8952 40.3662 36.1367 39.3135 36.1367C38.6299 36.1367 37.9919 36.0068 37.3994 35.7471C36.807 35.4827 36.349 35.1227 36.0254 34.667C35.7064 34.2113 35.5469 33.694 35.5469 33.1152H36.8662C36.8662 33.7168 37.0872 34.193 37.5293 34.5439C37.9759 34.8903 38.5706 35.0635 39.3135 35.0635C40.0062 35.0635 40.5371 34.9222 40.9062 34.6396C41.2754 34.3571 41.46 33.972 41.46 33.4844C41.46 32.9967 41.2891 32.6208 40.9473 32.3564C40.6055 32.0876 39.9857 31.8232 39.0879 31.5635ZM45.876 36H44.5635V26.0469H45.876V36ZM54.9541 27.127H51.7549V36H50.4492V27.127H47.2568V26.0469H54.9541V27.127ZM62.0566 31.3994H57.7432V34.9268H62.7539V36H56.4307V26.0469H62.6855V27.127H57.7432V30.3262H62.0566V31.3994ZM66.083 26.0469L69.3369 34.168L72.5908 26.0469H74.293V36H72.9805V32.124L73.1035 27.9404L69.8359 36H68.8311L65.5703 27.9609L65.7002 32.124V36H64.3877V26.0469H66.083ZM82.2295 33.4023H78.0596L77.123 36H75.7695L79.5703 26.0469H80.7188L84.5264 36H83.1797L82.2295 33.4023ZM78.4561 32.3223H81.8398L80.1445 27.667L78.4561 32.3223ZM87.1787 32.1035V36H85.8662V26.0469H89.5371C90.6263 26.0469 91.4785 26.3249 92.0938 26.8809C92.7135 27.4368 93.0234 28.1729 93.0234 29.0889C93.0234 30.055 92.7204 30.8001 92.1143 31.3242C91.5127 31.8438 90.6491 32.1035 89.5234 32.1035H87.1787ZM87.1787 31.0303H89.5371C90.2389 31.0303 90.7767 30.8662 91.1504 30.5381C91.5241 30.2054 91.7109 29.7269 91.7109 29.1025C91.7109 28.5101 91.5241 28.0361 91.1504 27.6807C90.7767 27.3252 90.264 27.1406 89.6123 27.127H87.1787V31.0303Z" fill="black"/>
<path d="M18.4023 99.8613L20.7881 96.0469H22.333L19.1885 100.982L22.4082 106H20.8496L18.4023 102.117L15.9414 106H14.3896L17.6162 100.982L14.4648 96.0469H16.0029L18.4023 99.8613ZM25.6279 96.0469L28.8818 104.168L32.1357 96.0469H33.8379V106H32.5254V102.124L32.6484 97.9404L29.3809 106H28.376L25.1152 97.9609L25.2451 102.124V106H23.9326V96.0469H25.6279ZM37.4746 104.927H42.1914V106H36.1553V96.0469H37.4746V104.927Z" fill="black"/>
<path d="M90.8047 106H89.4854V101.399H84.4678V106H83.1553V96.0469H84.4678V100.326H89.4854V96.0469H90.8047V106ZM99.8076 97.127H96.6084V106H95.3027V97.127H92.1104V96.0469H99.8076V97.127ZM102.979 96.0469L106.233 104.168L109.487 96.0469H111.189V106H109.877V102.124L110 97.9404L106.732 106H105.728L102.467 97.9609L102.597 102.124V106H101.284V96.0469H102.979ZM114.826 104.927H119.543V106H113.507V96.0469H114.826V104.927Z" fill="black"/>
</svg>
